# xmcd
#
# Track frame offsets: 
#        150
#        73912
#        124425
#        200512
#
# Disc length: 4103 seconds
#
# Revision: 0
# Processed by: cddbd v1.5.2PL0 Copyright (c) Steve Scherf et al.
# Submitted via: ExactAudioCopy v1.0b1
#
DISCID=3f100504
DTITLE=Jochum - Beethoven Symphony No.9 ,CD5
DYEAR=2005
DGENRE=Classical
TTITLE0=Sym No.9 in d, Op.125: 1. Allegro Ma Non Troppo E Un Poco Maes
TTITLE0=toso
TTITLE1=Sym No.9 in d, Op.125: 2. Molto Vivace - Presto
TTITLE2=Sym No.9 in d, Op.125: 3. Adagio Molto E Cantabile
TTITLE3=Sym No.9 in d, Op.125: 4. Presto - Allegro Assai 
EXTD=
EXTT0=
EXTT1=
EXTT2=
EXTT3=
PLAYORDER=
